HIERARCHY
ROOT Hips
{
	OFFSET 0.00000 0.00000 0.00000
	CHANNELS 6 Xposition Yposition Zposition Zrotation Yrotation Xrotation 
	JOINT LHipJoint
	{
		OFFSET 0 0 0
		CHANNELS 3 Zrotation Yrotation Xrotation
		JOINT LeftUpLeg
		{
			OFFSET 1.67711 -1.75950 0.70433
			CHANNELS 3 Zrotation Yrotation Xrotation
			JOINT LeftLeg
			{
				OFFSET 2.44937 -6.72958 0.00000
				CHANNELS 3 Zrotation Yrotation Xrotation
				JOINT LeftFoot
				{
					OFFSET 2.61292 -7.17894 0.00000
					CHANNELS 3 Zrotation Yrotation Xrotation
					JOINT LeftToeBase
					{
						OFFSET 0.17811 -0.48914 1.82515
						CHANNELS 3 Zrotation Yrotation Xrotation
						End Site
						{
							OFFSET -0.00112 -0.00292 0.95564
						}
					}
				}
			}
		}
	}
	JOINT RHipJoint
	{
		OFFSET 0 0 0
		CHANNELS 3 Zrotation Yrotation Xrotation
		JOINT RightUpLeg
		{
			OFFSET -1.61866 -1.75949 0.70433
			CHANNELS 3 Zrotation Yrotation Xrotation
			JOINT RightLeg
			{
				OFFSET -2.36243 -6.49072 0.00000
				CHANNELS 3 Zrotation Yrotation Xrotation
				JOINT RightFoot
				{
					OFFSET -2.64336 -7.26259 0.00000
					CHANNELS 3 Zrotation Yrotation Xrotation
					JOINT RightToeBase
					{
						OFFSET -0.18169 -0.49935 1.90192
						CHANNELS 3 Zrotation Yrotation Xrotation
						End Site
						{
							OFFSET 0.00039 0.00229 0.99264
						}
					}
				}
			}
		}
	}
	JOINT LowerBack
	{
		OFFSET 0 0 0
		CHANNELS 3 Zrotation Yrotation Xrotation
		JOINT Spine
		{
			OFFSET -0.01926 2.19655 -0.12599
			CHANNELS 3 Zrotation Yrotation Xrotation
			JOINT Spine1
			{
				OFFSET 0.01663 2.20532 -0.00079
				CHANNELS 3 Zrotation Yrotation Xrotation
				JOINT Neck
				{
					OFFSET 0 0 0
					CHANNELS 3 Zrotation Yrotation Xrotation
					JOINT Neck1
					{
						OFFSET 0.10604 1.75174 0.14226
						CHANNELS 3 Zrotation Yrotation Xrotation
						JOINT Head
						{
							OFFSET -0.09898 1.68516 -0.48414
							CHANNELS 3 Zrotation Yrotation Xrotation
							End Site
							{
								OFFSET -0.02896 1.78316 -0.18415
							}
						}
					}
				}
				JOINT LeftShoulder
				{
					OFFSET 0 0 0
					CHANNELS 3 Zrotation Yrotation Xrotation
					JOINT LeftArm
					{
						OFFSET 3.30655 1.16959 -0.30867
						CHANNELS 3 Zrotation Yrotation Xrotation
						JOINT LeftForeArm
						{
							OFFSET 5.35289 -0.00000 -0.00000
							CHANNELS 3 Zrotation Yrotation Xrotation
							JOINT LeftHand
							{
								OFFSET 3.27727 -0.00000 -0.00000
								CHANNELS 3 Zrotation Yrotation Xrotation
								JOINT LeftFingerBase
								{
									OFFSET 0 0 0
									CHANNELS 3 Zrotation Yrotation Xrotation
									JOINT LeftHandIndex1
									{
										OFFSET 0.54443 0.00002 0.00009
										CHANNELS 3 Zrotation Yrotation Xrotation
										End Site
										{
											OFFSET 0.43891 -0.00000 -0.00000
										}
									}
								}
								JOINT LThumb
								{
									OFFSET 0 0 0
									CHANNELS 3 Zrotation Yrotation Xrotation
									End Site
									{
										OFFSET 0.44564 0.00002 0.44570
									}
								}
							}
						}
					}
				}
				JOINT RightShoulder
				{
					OFFSET 0 0 0
					CHANNELS 3 Zrotation Yrotation Xrotation
					JOINT RightArm
					{
						OFFSET -3.27172 0.97864 -0.36131
						CHANNELS 3 Zrotation Yrotation Xrotation
						JOINT RightForeArm
						{
							OFFSET -5.52076 -0.00317 -0.00590
							CHANNELS 3 Zrotation Yrotation Xrotation
							JOINT RightHand
							{
								OFFSET -3.32364 -0.00000 -0.00000
								CHANNELS 3 Zrotation Yrotation Xrotation
								JOINT RightFingerBase
								{
									OFFSET 0 0 0
									CHANNELS 3 Zrotation Yrotation Xrotation
									JOINT RightHandIndex1
									{
										OFFSET -0.73223 -0.00000 -0.00000
										CHANNELS 3 Zrotation Yrotation Xrotation
										End Site
										{
											OFFSET -0.59035 -0.00000 -0.00000
										}
									}
								}
								JOINT RThumb
								{
									OFFSET 0 0 0
									CHANNELS 3 Zrotation Yrotation Xrotation
									End Site
									{
										OFFSET -0.59936 -0.00000 0.59936
									}
								}
							}
						}
					}
				}
			}
		}
	}
}
MOTION
Frames: 12
Frame Time: .0083333
5.9263 21.1307 -4.9466 0 0 0 0 0 0 -21 0 0 0 0 0 0 0 0 0 0 0 0 0 0 21 0 0 0 0 0 0 0 0 0 0 0 0 0 0 0 0 0 0 0 0 0 0 -16 0 0 21 0 0 11 0 0 0 -8 0 0 0 0 0 0 0 0 0 0 0 0 0 0 0 0 0 0 0 0 8 0 0 0 0 0 0 0 0 0 0 0 0 0 0 0 0 0
5.9263 21.1307 -4.9466 1.7483 -2.5661 12.0206 0.0000 0.0000 0.0000 -16.6269 -23.6060 -39.4899 8.7112 16.6182 55.0858 1.3467 -11.9729 -21.1597 0.1428 -2.4355 -6.7109 0.0000 0.0000 0.0000 15.8413 9.4513 -40.3567 -19.1124 -19.9811 87.4039 -0.2643 -3.2638 9.1362 -0.8630 5.9239 -16.5637 -3.9447 1.7736 13.1599 -2.6833 1.6310 2.0982 -0.8794 0.8480 -5.1978 11.7895 9.9831 -19.5814 -14.2265 13.7945 18.6977 -4.8171 5.6230 11.1845 0.0000 -0.0000 0.0000 -78.5511 0.4257 33.4346 82.1043 -59.7631 -53.1675 -0.0000 0.0000 -13.2844 24.2325 20.5779 8.9898 -7.1250 0.0000 -0.0000 -4.4324 52.3040 -0.7982 0.0000 -0.0000 0.0000 85.0170 -9.4608 36.1478 -35.6968 45.3033 -15.3066 0.0000 -0.0000 -9.6055 -17.4074 22.2788 -6.7784 7.1250 -0.0000 -0.0000 7.1976 -6.8953 6.3329
5.9264 21.2052 -4.8407 1.9935 -2.7560 11.7380 0.0000 0.0000 0.0000 -17.3951 -23.2666 -37.8059 8.2764 16.3188 53.5523 1.3316 -11.8326 -21.0267 0.0971 -2.0093 -5.5314 0.0000 0.0000 0.0000 15.3588 9.6245 -42.0449 -19.8518 -19.9995 89.5668 -0.1990 -2.9713 7.9250 -0.9560 6.2260 -17.4417 -4.5515 1.7100 13.1476 -2.4595 1.4615 1.7894 -0.2805 0.7847 -5.5360 11.5905 9.9885 -18.8153 -14.0336 13.9049 18.8096 -4.7171 5.7122 11.0634 -0.0000 0.0000 0.0000 -78.9013 1.5457 33.4267 83.3505 -59.8323 -54.2446 -0.0000 0.0000 -12.8266 24.1251 19.1823 8.3711 -7.1250 0.0000 -0.0000 -4.1682 50.7996 -0.5965 -0.0000 0.0000 0.0000 84.7723 -9.9884 35.9963 -35.2179 44.9671 -14.9671 0.0000 -0.0000 -9.0802 -18.1533 22.9423 -7.2834 7.1250 -0.0000 -0.0000 6.7761 -6.1097 6.0600
5.9516 21.3042 -4.6982 2.7273 -1.1582 10.5884 0.0000 0.0000 0.0000 -19.1911 -24.1490 -34.3867 7.8230 15.9875 51.9228 1.3250 -11.6450 -20.9475 0.1185 -2.2196 -6.1129 0.0000 0.0000 0.0000 14.6698 7.2865 -42.4828 -20.4206 -19.9958 91.2300 -0.1091 -2.0955 5.8652 -1.3600 7.3816 -20.8509 -4.2009 1.1592 13.7232 -2.6117 0.7675 2.3833 -0.5146 0.4281 -5.1966 11.1824 10.1787 -20.3836 -13.4644 14.0973 19.5456 -4.3670 5.7389 11.5760 0.0000 -0.0000 0.0000 -78.7287 1.0985 33.9378 84.1743 -59.8714 -54.9570 -0.0000 0.0000 -12.8376 24.0442 19.9912 8.6724 -7.1250 0.0000 -0.0000 -4.4606 51.6465 -0.7314 0.0000 -0.0000 0.0000 85.1745 -9.3610 35.0547 -34.3724 44.3588 -14.3728 0.0000 -0.0000 -8.7307 -19.0285 23.7402 -7.9048 7.1250 -0.0000 -0.0000 6.2947 -5.1584 5.7387
5.9597 21.3687 -4.6038 2.9183 -0.9644 10.4615 0.0000 0.0000 0.0000 -19.8855 -24.0090 -32.9184 7.4245 15.6792 50.4621 1.3482 -10.7852 -20.9906 0.3302 -3.6929 -10.2142 0.0000 0.0000 0.0000 14.2087 7.1050 -44.3776 -21.0328 -19.9744 93.0211 -0.0818 -2.0979 5.0838 -1.3298 7.3025 -20.6148 -4.2661 1.0326 13.4939 -2.5772 0.5990 2.1768 -0.4103 0.3501 -5.2861 10.9840 10.3630 -20.0997 -13.1120 14.3872 19.7769 -4.1585 5.9002 11.5991 -0.0000 0.0000 0.0000 -78.7107 1.6059 34.3167 85.2739 -59.9154 -55.9082 -0.0000 0.0000 -12.9213 23.9153 21.8801 9.3840 -7.1250 0.0000 -0.0000 -5.1461 53.6233 -1.0934 -0.0000 0.0000 0.0000 85.3182 -9.8468 34.5750 -33.8844 43.9989 -14.0327 0.0000 -0.0000 -8.7176 -19.2785 23.7444 -8.0167 7.1250 -0.0000 -0.0000 6.1403 -5.1148 5.6013
5.9562 21.4318 -4.5151 2.9481 -1.8938 10.6602 0.0000 0.0000 0.0000 -20.1818 -23.2057 -32.1737 7.0295 15.3567 48.9859 1.3367 -10.2276 -20.8372 0.3450 -3.7744 -10.4429 0.0000 0.0000 0.0000 13.6949 8.3356 -46.6854 -21.5791 -19.9401 94.6213 -0.0760 -2.6224 4.9533 -0.9177 6.1036 -17.0852 -4.4753 1.3623 13.3224 -2.5960 1.0136 2.1924 -0.3828 0.5548 -5.1883 10.9496 10.3084 -21.3292 -13.0828 14.2206 19.9645 -4.1397 5.7653 11.8756 -0.0000 -0.0000 0.0000 -78.6097 1.0035 34.7606 86.1392 -59.9436 -56.6571 -0.0000 0.0000 -13.3207 23.9175 24.1564 10.2869 -7.1250 0.0000 -0.0000 -5.9347 56.0156 -1.6077 -0.0000 -0.0000 0.0000 85.4863 -9.5008 33.7519 -33.7067 43.8662 -13.9094 0.0000 -0.0000 -8.8635 -18.6568 22.8647 -7.4741 7.1250 -0.0000 -0.0000 6.4559 -6.1149 5.7691
5.9679 21.5165 -4.4012 3.2311 -0.8531 10.0304 0.0000 0.0000 0.0000 -21.0066 -23.7496 -29.9359 6.6601 15.0389 47.5768 1.2639 -10.5741 -20.3309 0.1841 -2.7632 -7.6201 0.0000 0.0000 0.0000 13.3489 7.1292 -47.7466 -21.9813 -19.9056 95.8018 -0.0369 -2.5951 3.6145 -0.7138 5.3991 -15.0506 -4.3771 0.9120 13.8472 -2.4410 0.4042 2.0723 -0.1759 0.2630 -5.5885 11.5353 10.2620 -20.5480 -13.5931 14.1622 19.7961 -4.4586 5.7662 11.7518 -0.0000 -0.0000 0.0000 -78.7144 1.6646 35.0004 86.0252 -59.9402 -56.5584 -0.0000 0.0000 -13.0677 23.3368 22.3028 9.2984 -7.1250 0.0000 -0.0000 -5.8815 53.9562 -1.2983 -0.0000 -0.0000 0.0000 85.3570 -10.0184 33.4342 -33.1988 43.4823 -13.5587 0.0000 -0.0000 -8.6888 -18.3415 22.6751 -7.2831 7.1250 -0.0000 -0.0000 6.6390 -6.3562 5.9039
5.9767 21.5919 -4.2814 3.5925 -0.3669 9.4521 0.0000 0.0000 0.0000 -22.0119 -23.7410 -27.7709 6.2971 14.7102 46.1628 1.2633 -10.5814 -20.3279 0.1923 -2.8244 -7.7903 0.0000 0.0000 0.0000 12.8011 6.4455 -48.5239 -22.3091 -19.8717 96.7651 -0.0005 -2.1214 1.5285 -0.8492 5.8773 -16.4287 -4.6146 0.6181 14.0372 -2.2923 -0.0252 1.9935 0.1919 0.0632 -5.7637 11.9477 10.3987 -19.6445 -14.1151 14.4247 19.4881 -4.6901 5.9070 11.5875 -0.0000 0.0000 0.0000 -78.9585 2.5048 35.0808 86.4564 -59.9525 -56.9316 -0.0000 0.0000 -12.6687 23.1933 21.4923 8.9214 -7.1250 0.0000 -0.0000 -5.7641 53.0779 -1.1485 -0.0000 0.0000 0.0000 85.1228 -10.3344 33.2877 -32.1871 42.6959 -12.8675 0.0000 -0.0000 -7.9410 -18.9960 23.4741 -7.8081 7.1250 -0.0000 -0.0000 6.2928 -5.4370 5.7035
5.9942 21.6433 -4.1726 3.7446 -1.6046 9.6877 0.0000 0.0000 0.0000 -22.4913 -22.9716 -27.0481 5.9674 14.3966 44.8506 1.3062 -10.0720 -20.5895 0.1598 -2.5757 -7.0995 0.0000 0.0000 0.0000 11.9377 7.8303 -50.4239 -22.6302 -19.8333 97.7106 0.0006 -0.9402 -1.2302 -1.6185 8.0215 -22.7795 -4.7607 0.9969 13.2333 -2.4479 0.4961 1.9702 0.0234 0.3129 -5.3635 11.1440 10.5801 -20.7232 -13.1101 14.6327 20.0750 -4.1173 5.9857 11.8782 0.0000 -0.0000 0.0000 -78.7550 2.5026 35.5776 86.7015 -59.9588 -57.1438 -0.0000 0.0000 -12.3329 23.0557 20.6420 8.5332 -7.1250 0.0000 -0.0000 -5.6416 52.1583 -0.9968 0.0000 -0.0000 0.0000 85.3745 -10.1921 32.6036 -31.8982 42.4659 -12.6720 0.0000 -0.0000 -7.9991 -19.0335 22.8465 -7.6290 7.1250 -0.0000 -0.0000 6.2191 -6.0771 5.5594
6.0033 21.7039 -4.0632 3.9734 -1.4814 9.5325 0.0000 0.0000 0.0000 -23.0917 -22.9647 -25.6360 5.6607 14.0913 43.6043 1.2904 -10.0213 -20.4641 0.0739 -1.7539 -4.8260 0.0000 0.0000 0.0000 11.3433 7.7421 -51.8643 -22.8514 -19.8039 98.3630 0.0104 -1.8217 -0.8523 -0.5924 4.9275 -13.7020 -4.7121 0.9344 13.0633 -2.4834 0.4322 2.0052 -0.0271 0.2781 -5.2296 10.9774 10.5817 -20.4976 -12.8149 14.5860 19.7822 -3.9929 6.0051 11.6734 0.0000 0.0000 0.0000 -78.5736 2.6100 36.0423 86.7899 -59.9610 -57.2204 -0.0000 0.0000 -12.0097 22.6809 19.8677 8.0836 -7.1250 0.0000 -0.0000 -5.7902 51.2773 -0.8979 0.0000 0.0000 0.0000 85.5752 -10.1499 31.9281 -31.4519 42.1058 -12.3718 0.0000 -0.0000 -8.0721 -18.9983 22.6714 -7.5594 7.1250 -0.0000 -0.0000 6.2275 -6.2627 5.5446
5.9974 21.7451 -3.9689 4.1231 -1.8967 9.2802 0.0000 0.0000 0.0000 -23.5883 -22.3178 -24.4625 5.3972 13.8176 42.5117 1.3078 -9.6294 -20.5563 0.0951 -1.9891 -5.4755 0.0000 0.0000 0.0000 10.8402 8.4594 -53.2804 -23.0424 -19.7766 98.9274 -0.0147 -1.2505 -3.1032 -0.9603 6.2399 -17.4821 -5.4073 0.9014 13.2052 -2.1100 0.2816 1.5964 0.7765 0.2360 -5.7412 11.0482 10.5823 -19.9490 -12.9667 14.7243 20.2184 -4.0583 6.0680 11.7747 0.0000 0.0000 0.0000 -79.1637 3.9114 35.6691 87.2370 -59.9711 -57.6074 -0.0000 0.0000 -11.1445 21.6544 20.7481 8.0062 -7.1250 0.0000 -0.0000 -7.0822 52.0191 -1.2290 0.0000 0.0000 0.0000 84.9421 -10.8002 32.1606 -30.9109 41.6615 -12.0106 0.0000 -0.0000 -8.0618 -18.5998 22.3602 -7.2957 7.1250 -0.0000 -0.0000 6.4539 -6.6418 5.7013
5.9917 21.7838 -3.8679 4.1113 -2.0452 9.0427 0.0000 0.0000 0.0000 -23.9151 -21.6430 -23.2769 5.1337 13.5328 41.3973 1.3085 -9.4662 -20.5470 0.1390 -2.4032 -6.6213 0.0000 0.0000 0.0000 10.5281 8.9834 -54.3908 -23.1207 -19.7649 99.1588 -0.0477 -1.0980 -4.6855 -1.0520 6.5220 -18.3068 -5.4284 0.9398 13.1266 -2.0033 0.3477 1.7228 0.8914 0.2643 -5.5674 10.7924 10.6555 -20.8429 -12.6827 14.7964 20.5800 -3.8712 6.0618 12.0439 -0.0000 -0.0000 0.0000 -79.1101 3.7636 36.1187 86.7664 -59.9605 -57.2000 -0.0000 0.0000 -11.4080 21.2661 21.5135 8.1229 -7.1250 0.0000 -0.0000 -7.7267 52.7441 -1.4795 -0.0000 -0.0000 0.0000 85.0233 -10.5359 31.5436 -30.3880 41.2236 -11.6645 0.0000 -0.0000 -7.8041 -18.1656 21.4503 -6.8422 7.1250 -0.0000 -0.0000 6.6650 -7.6389 5.7600
